<svg width="285" height="285" viewBox="0 0 285 285" fill="none" xmlns="http://www.w3.org/2000/svg">
<g clip-path="url(#clip0_233_4)">
<path d="M142.5 285C221.201 285 285 221.201 285 142.5C285 63.7994 221.201 0 142.5 0C63.7994 0 0 63.7994 0 142.5C0 221.201 63.7994 285 142.5 285Z" fill="white"/>
<path d="M231.602 182.036H196.828C205.652 170.535 210.967 156.162 210.967 140.506C210.967 124.85 205.635 110.443 196.794 98.9413H231.586C237.474 111.558 240.798 125.643 240.798 140.506C240.798 155.368 237.491 169.42 231.602 182.036ZM143.121 182.036C120.259 182.036 101.733 163.442 101.733 140.489C101.733 117.536 120.259 98.9413 143.121 98.9413C165.984 98.9413 184.511 117.553 184.511 140.489C184.511 163.424 165.984 182.036 143.121 182.036ZM75.2421 140.506C75.2421 178.135 105.613 208.654 143.105 208.654C153.161 208.654 162.677 206.391 171.265 202.456V234.41C162.357 237.095 152.908 238.565 143.121 238.565C89.1963 238.565 45.4789 194.669 45.4789 140.506C45.4789 86.342 89.1963 42.4468 143.139 42.4468C152.925 42.4468 162.357 43.9162 171.282 46.6016V78.5558C162.694 74.6208 153.178 72.3574 143.121 72.3574C105.647 72.3574 75.2595 102.86 75.2595 140.506H75.2421Z" fill="#1B2735"/>
</g>
<defs>
<clipPath id="clip0_233_4">
<rect width="285" height="285" fill="white"/>
</clipPath>
</defs>
</svg>
