<svg width="200" height="27" viewBox="0 0 200 27" fill="none" xmlns="http://www.w3.org/2000/svg">
<rect y="0.957428" width="200" height="26" rx="13" fill="#1B2735"/>
<path d="M85.207 14.1119C85.207 15.9692 86.7256 17.4735 88.6023 17.4735C89.1045 17.4735 89.5811 17.3611 90.0102 17.1679V18.7452C89.5653 18.8773 89.0927 18.9502 88.6023 18.9502C85.905 18.9502 83.7179 16.7854 83.7179 14.1119C83.7179 11.4384 85.905 9.27359 88.6042 9.27359C89.0946 9.27359 89.5653 9.34654 90.0122 9.47864V11.0559C89.5831 10.8607 89.1065 10.7503 88.6042 10.7503C86.7296 10.7503 85.2089 12.2547 85.2089 14.1119H85.207ZM88.6023 16.1604C87.4593 16.1604 86.5319 15.2436 86.5319 14.1099C86.5319 12.9763 87.4593 12.0595 88.6023 12.0595C89.7452 12.0595 90.6727 12.9782 90.6727 14.1099C90.6727 15.2416 89.7452 16.1604 88.6023 16.1604ZM93.0298 16.1604H91.2896C91.7306 15.5926 91.9976 14.8848 91.9976 14.1119C91.9976 13.339 91.7306 12.6293 91.2876 12.0614H93.0278C93.3224 12.6845 93.4886 13.3785 93.4886 14.1119C93.4886 14.8453 93.3224 15.5394 93.0278 16.1604" fill="white"/>
<path d="M100.628 9.27359L100.628 18.9574" stroke="white"/>
<path d="M107.879 17.3578V10.7628H108.924V17.3578H107.879ZM110.291 17.3578V10.7628H112.451C113.136 10.7628 113.729 10.9015 114.231 11.1789C114.738 11.4504 115.131 11.834 115.408 12.3297C115.685 12.8254 115.824 13.4008 115.824 14.0559C115.824 14.7051 115.685 15.2805 115.408 15.7821C115.131 16.2779 114.738 16.6644 114.231 16.9418C113.729 17.2192 113.136 17.3578 112.451 17.3578H110.291ZM111.336 16.4283H112.469C112.935 16.4283 113.34 16.331 113.682 16.1362C114.03 15.9415 114.299 15.667 114.487 15.3129C114.676 14.9589 114.771 14.5398 114.771 14.0559C114.771 13.572 114.673 13.1559 114.479 12.8077C114.29 12.4536 114.024 12.1792 113.682 11.9844C113.34 11.7897 112.935 11.6923 112.469 11.6923H111.336V16.4283Z" fill="white"/>
</svg>
