<svg width="200" height="26" viewBox="0 0 200 26" fill="none" xmlns="http://www.w3.org/2000/svg">
<rect x="0.5" y="0.5" width="199" height="25" rx="12.5" fill="white"/>
<rect x="0.5" y="0.5" width="199" height="25" rx="12.5" stroke="#1B2735"/>
<path d="M85.207 13.1545C85.207 15.0117 86.7256 16.5161 88.6023 16.5161C89.1045 16.5161 89.5811 16.4037 90.0102 16.2105V17.7878C89.5653 17.9199 89.0927 17.9928 88.6023 17.9928C85.905 17.9928 83.7179 15.828 83.7179 13.1545C83.7179 10.481 85.905 8.31616 88.6042 8.31616C89.0946 8.31616 89.5653 8.38911 90.0122 8.52121V10.0985C89.5831 9.90331 89.1065 9.7929 88.6042 9.7929C86.7296 9.7929 85.2089 11.2972 85.2089 13.1545H85.207ZM88.6023 15.203C87.4593 15.203 86.5319 14.2862 86.5319 13.1525C86.5319 12.0188 87.4593 11.102 88.6023 11.102C89.7452 11.102 90.6727 12.0208 90.6727 13.1525C90.6727 14.2842 89.7452 15.203 88.6023 15.203ZM93.0298 15.203H91.2896C91.7306 14.6352 91.9976 13.9274 91.9976 13.1545C91.9976 12.3816 91.7306 11.6718 91.2876 11.104H93.0278C93.3224 11.727 93.4886 12.421 93.4886 13.1545C93.4886 13.8879 93.3224 14.5819 93.0278 15.203" fill="#1B2735"/>
<path d="M100.628 8.31616L100.628 18" stroke="#1B2735"/>
<path d="M107.879 16.4004V9.80539H108.924V16.4004H107.879ZM110.291 16.4004V9.80539H112.451C113.136 9.80539 113.729 9.94408 114.231 10.2215C114.738 10.4929 115.131 10.8765 115.408 11.3723C115.685 11.868 115.824 12.4434 115.824 13.0985C115.824 13.7477 115.685 14.3231 115.408 14.8247C115.131 15.3204 114.738 15.707 114.231 15.9844C113.729 16.2617 113.136 16.4004 112.451 16.4004H110.291ZM111.336 15.4709H112.469C112.935 15.4709 113.34 15.3735 113.682 15.1788C114.03 14.984 114.299 14.7096 114.487 14.3555C114.676 14.0014 114.771 13.5824 114.771 13.0985C114.771 12.6145 114.673 12.1985 114.479 11.8503C114.29 11.4962 114.024 11.2218 113.682 11.027C113.34 10.8323 112.935 10.7349 112.469 10.7349H111.336V15.4709Z" fill="#1B2735"/>
</svg>
