<svg width="200" height="26" viewBox="0 0 200 26" fill="none" xmlns="http://www.w3.org/2000/svg">
<rect x="0.5" y="0.5" width="199" height="25" rx="12.5" fill="white"/>
<rect x="0.5" y="0.5" width="199" height="25" rx="12.5" stroke="#1B2735"/>
<path d="M60.7379 16.5L58.3169 9.795H59.2619L61.3139 15.69H61.1249L63.1769 9.795H64.1219L61.7099 16.5H60.7379ZM66.6526 16.608C66.1846 16.608 65.7676 16.497 65.4016 16.275C65.0356 16.053 64.7476 15.75 64.5376 15.366C64.3276 14.976 64.2226 14.541 64.2226 14.061C64.2226 13.575 64.3246 13.143 64.5286 12.765C64.7386 12.387 65.0206 12.09 65.3746 11.874C65.7346 11.652 66.1366 11.541 66.5806 11.541C66.9406 11.541 67.2586 11.607 67.5346 11.739C67.8166 11.865 68.0536 12.039 68.2456 12.261C68.4436 12.477 68.5936 12.726 68.6956 13.008C68.8036 13.284 68.8576 13.572 68.8576 13.872C68.8576 13.938 68.8516 14.013 68.8396 14.097C68.8336 14.175 68.8246 14.25 68.8126 14.322H64.8346V13.602H68.3266L67.9306 13.926C67.9846 13.614 67.9546 13.335 67.8406 13.089C67.7266 12.843 67.5586 12.648 67.3366 12.504C67.1146 12.36 66.8626 12.288 66.5806 12.288C66.2986 12.288 66.0406 12.36 65.8066 12.504C65.5726 12.648 65.3896 12.855 65.2576 13.125C65.1316 13.389 65.0806 13.704 65.1046 14.07C65.0806 14.424 65.1346 14.736 65.2666 15.006C65.4046 15.27 65.5966 15.477 65.8426 15.627C66.0946 15.771 66.3676 15.843 66.6616 15.843C66.9856 15.843 67.2586 15.768 67.4806 15.618C67.7026 15.468 67.8826 15.276 68.0206 15.042L68.7226 15.402C68.6266 15.624 68.4766 15.828 68.2726 16.014C68.0746 16.194 67.8376 16.338 67.5616 16.446C67.2916 16.554 66.9886 16.608 66.6526 16.608ZM69.9489 16.5V11.649H70.7679V12.54L70.6779 12.414C70.7919 12.138 70.9659 11.934 71.1999 11.802C71.4339 11.664 71.7189 11.595 72.0549 11.595H72.3519V12.387H71.9289C71.5869 12.387 71.3109 12.495 71.1009 12.711C70.8909 12.921 70.7859 13.221 70.7859 13.611V16.5H69.9489ZM73.0954 16.5V11.649H73.9324V16.5H73.0954ZM73.0954 10.875V9.795H73.9324V10.875H73.0954ZM75.7442 16.5V12.45H74.8172V11.649H75.7442V11.307C75.7442 10.959 75.8192 10.665 75.9692 10.425C76.1252 10.185 76.3292 10.002 76.5812 9.876C76.8392 9.75 77.1242 9.687 77.4362 9.687C77.5022 9.687 77.5742 9.693 77.6522 9.705C77.7362 9.711 77.8052 9.72 77.8592 9.732V10.479C77.8112 10.467 77.7542 10.461 77.6882 10.461C77.6222 10.455 77.5712 10.452 77.5352 10.452C77.2592 10.452 77.0312 10.518 76.8512 10.65C76.6772 10.782 76.5902 11.001 76.5902 11.307V11.649H77.7422V12.45H76.5902V16.5H75.7442ZM79.0693 18.48C78.9613 18.48 78.8533 18.471 78.7453 18.453C78.6373 18.435 78.5353 18.405 78.4393 18.363V17.616C78.5053 17.628 78.5863 17.64 78.6823 17.652C78.7843 17.67 78.8833 17.679 78.9793 17.679C79.2613 17.679 79.4743 17.616 79.6183 17.49C79.7683 17.37 79.9093 17.16 80.0413 16.86L80.3473 16.131L80.3293 16.86L78.2593 11.649H79.1683L80.7793 15.789H80.5093L82.1113 11.649H83.0383L80.8513 17.076C80.7493 17.334 80.6173 17.568 80.4553 17.778C80.2993 17.994 80.1073 18.165 79.8793 18.291C79.6513 18.417 79.3813 18.48 79.0693 18.48ZM86.4546 16.5L84.7896 11.649H85.7166L87.0396 15.708L86.7156 15.699L88.0116 11.649H88.8036L90.0996 15.699L89.7756 15.708L91.1076 11.649H92.0256L90.3606 16.5H89.5596L88.2816 12.45H88.5336L87.2556 16.5H86.4546ZM92.7741 16.5V11.649H93.6111V16.5H92.7741ZM92.7741 10.875V9.795H93.6111V10.875H92.7741ZM96.8809 16.554C96.4069 16.554 96.0409 16.419 95.7829 16.149C95.5309 15.879 95.4049 15.498 95.4049 15.006V12.45H94.5229V11.649H94.7029C94.9189 11.649 95.0899 11.583 95.2159 11.451C95.3419 11.319 95.4049 11.145 95.4049 10.929V10.533H96.2419V11.649H97.3309V12.45H96.2419V14.979C96.2419 15.141 96.2659 15.282 96.3139 15.402C96.3679 15.522 96.4549 15.618 96.5749 15.69C96.6949 15.756 96.8539 15.789 97.0519 15.789C97.0939 15.789 97.1449 15.786 97.2049 15.78C97.2709 15.774 97.3309 15.768 97.3849 15.762V16.5C97.3069 16.518 97.2199 16.53 97.1239 16.536C97.0279 16.548 96.9469 16.554 96.8809 16.554ZM98.4782 16.5V9.687H99.3152V12.594L99.1622 12.513C99.2822 12.207 99.4742 11.97 99.7382 11.802C100.008 11.628 100.323 11.541 100.683 11.541C101.031 11.541 101.34 11.619 101.61 11.775C101.886 11.931 102.102 12.147 102.258 12.423C102.42 12.699 102.501 13.011 102.501 13.359V16.5H101.655V13.629C101.655 13.359 101.604 13.131 101.502 12.945C101.406 12.759 101.271 12.615 101.097 12.513C100.923 12.405 100.722 12.351 100.494 12.351C100.272 12.351 100.071 12.405 99.8912 12.513C99.7112 12.615 99.5702 12.762 99.4682 12.954C99.3662 13.14 99.3152 13.365 99.3152 13.629V16.5H98.4782Z" fill="#1B2735"/>
<path d="M110.707 13.1545C110.707 15.0117 112.226 16.5161 114.102 16.5161C114.605 16.5161 115.081 16.4037 115.51 16.2105V17.7878C115.065 17.9199 114.593 17.9928 114.102 17.9928C111.405 17.9928 109.218 15.828 109.218 13.1545C109.218 10.481 111.405 8.31616 114.104 8.31616C114.595 8.31616 115.065 8.38911 115.512 8.52121V10.0985C115.083 9.90331 114.607 9.7929 114.104 9.7929C112.23 9.7929 110.709 11.2972 110.709 13.1545H110.707ZM114.102 15.203C112.959 15.203 112.032 14.2862 112.032 13.1525C112.032 12.0188 112.959 11.102 114.102 11.102C115.245 11.102 116.173 12.0208 116.173 13.1525C116.173 14.2842 115.245 15.203 114.102 15.203ZM118.53 15.203H116.79C117.231 14.6352 117.498 13.9274 117.498 13.1545C117.498 12.3816 117.231 11.6718 116.788 11.104H118.528C118.822 11.727 118.989 12.421 118.989 13.1545C118.989 13.8879 118.822 14.5819 118.528 15.203" fill="#1B2735"/>
<path d="M126.128 8.31616L126.128 18" stroke="#1B2735"/>
<path d="M133.379 16.4004V9.80539H134.424V16.4004H133.379ZM135.791 16.4004V9.80539H137.951C138.636 9.80539 139.229 9.94408 139.731 10.2215C140.238 10.4929 140.631 10.8765 140.908 11.3723C141.185 11.868 141.324 12.4434 141.324 13.0985C141.324 13.7477 141.185 14.3231 140.908 14.8247C140.631 15.3204 140.238 15.707 139.731 15.9844C139.229 16.2617 138.636 16.4004 137.951 16.4004H135.791ZM136.836 15.4709H137.969C138.435 15.4709 138.84 15.3735 139.182 15.1788C139.53 14.984 139.799 14.7096 139.987 14.3555C140.176 14.0014 140.271 13.5824 140.271 13.0985C140.271 12.6145 140.173 12.1985 139.979 11.8503C139.79 11.4962 139.524 11.2218 139.182 11.027C138.84 10.8323 138.435 10.7349 137.969 10.7349H136.836V15.4709Z" fill="#1B2735"/>
</svg>
