<svg width="200" height="27" viewBox="0 0 200 27" fill="none" xmlns="http://www.w3.org/2000/svg">
<rect y="0.957428" width="200" height="26" rx="13" fill="#1B2735"/>
<path d="M26.7512 17.4574L24.3302 10.7524H25.2752L27.3272 16.6474H27.1382L29.1902 10.7524H30.1352L27.7232 17.4574H26.7512ZM32.6659 17.5654C32.1979 17.5654 31.7809 17.4544 31.4149 17.2324C31.0489 17.0104 30.7609 16.7074 30.5509 16.3234C30.3409 15.9334 30.2359 15.4984 30.2359 15.0184C30.2359 14.5324 30.3379 14.1004 30.5419 13.7224C30.7519 13.3444 31.0339 13.0474 31.3879 12.8314C31.7479 12.6094 32.1499 12.4984 32.5939 12.4984C32.9539 12.4984 33.2719 12.5644 33.5479 12.6964C33.8299 12.8224 34.0669 12.9964 34.2589 13.2184C34.4569 13.4344 34.6069 13.6834 34.7089 13.9654C34.8169 14.2414 34.8709 14.5294 34.8709 14.8294C34.8709 14.8954 34.8649 14.9704 34.8529 15.0544C34.8469 15.1324 34.8379 15.2074 34.8259 15.2794H30.8479V14.5594H34.3399L33.9439 14.8834C33.9979 14.5714 33.9679 14.2924 33.8539 14.0464C33.7399 13.8004 33.5719 13.6054 33.3499 13.4614C33.1279 13.3174 32.8759 13.2454 32.5939 13.2454C32.3119 13.2454 32.0539 13.3174 31.8199 13.4614C31.5859 13.6054 31.4029 13.8124 31.2709 14.0824C31.1449 14.3464 31.0939 14.6614 31.1179 15.0274C31.0939 15.3814 31.1479 15.6934 31.2799 15.9634C31.4179 16.2274 31.6099 16.4344 31.8559 16.5844C32.1079 16.7284 32.3809 16.8004 32.6749 16.8004C32.9989 16.8004 33.2719 16.7254 33.4939 16.5754C33.7159 16.4254 33.8959 16.2334 34.0339 15.9994L34.7359 16.3594C34.6399 16.5814 34.4899 16.7854 34.2859 16.9714C34.0879 17.1514 33.8509 17.2954 33.5749 17.4034C33.3049 17.5114 33.0019 17.5654 32.6659 17.5654ZM35.9622 17.4574V12.6064H36.7812V13.4974L36.6912 13.3714C36.8052 13.0954 36.9792 12.8914 37.2132 12.7594C37.4472 12.6214 37.7322 12.5524 38.0682 12.5524H38.3652V13.3444H37.9422C37.6002 13.3444 37.3242 13.4524 37.1142 13.6684C36.9042 13.8784 36.7992 14.1784 36.7992 14.5684V17.4574H35.9622ZM39.1087 17.4574V12.6064H39.9457V17.4574H39.1087ZM39.1087 11.8324V10.7524H39.9457V11.8324H39.1087ZM41.7574 17.4574V13.4074H40.8304V12.6064H41.7574V12.2644C41.7574 11.9164 41.8324 11.6224 41.9824 11.3824C42.1384 11.1424 42.3424 10.9594 42.5944 10.8334C42.8524 10.7074 43.1374 10.6444 43.4494 10.6444C43.5154 10.6444 43.5874 10.6504 43.6654 10.6624C43.7494 10.6684 43.8184 10.6774 43.8724 10.6894V11.4364C43.8244 11.4244 43.7674 11.4184 43.7014 11.4184C43.6354 11.4124 43.5844 11.4094 43.5484 11.4094C43.2724 11.4094 43.0444 11.4754 42.8644 11.6074C42.6904 11.7394 42.6034 11.9584 42.6034 12.2644V12.6064H43.7554V13.4074H42.6034V17.4574H41.7574ZM45.0826 19.4374C44.9746 19.4374 44.8666 19.4284 44.7586 19.4104C44.6506 19.3924 44.5486 19.3624 44.4526 19.3204V18.5734C44.5186 18.5854 44.5996 18.5974 44.6956 18.6094C44.7976 18.6274 44.8966 18.6364 44.9926 18.6364C45.2746 18.6364 45.4876 18.5734 45.6316 18.4474C45.7816 18.3274 45.9226 18.1174 46.0546 17.8174L46.3606 17.0884L46.3426 17.8174L44.2726 12.6064H45.1816L46.7926 16.7464H46.5226L48.1246 12.6064H49.0516L46.8646 18.0334C46.7626 18.2914 46.6306 18.5254 46.4686 18.7354C46.3126 18.9514 46.1206 19.1224 45.8926 19.2484C45.6646 19.3744 45.3946 19.4374 45.0826 19.4374ZM52.4679 17.4574L50.8029 12.6064H51.7299L53.0529 16.6654L52.7289 16.6564L54.0249 12.6064H54.8169L56.1129 16.6564L55.7889 16.6654L57.1209 12.6064H58.0389L56.3739 17.4574H55.5729L54.2949 13.4074H54.5469L53.2689 17.4574H52.4679ZM58.7874 17.4574V12.6064H59.6244V17.4574H58.7874ZM58.7874 11.8324V10.7524H59.6244V11.8324H58.7874ZM62.8941 17.5114C62.4201 17.5114 62.0541 17.3764 61.7961 17.1064C61.5441 16.8364 61.4181 16.4554 61.4181 15.9634V13.4074H60.5361V12.6064H60.7161C60.9321 12.6064 61.1031 12.5404 61.2291 12.4084C61.3551 12.2764 61.4181 12.1024 61.4181 11.8864V11.4904H62.2551V12.6064H63.3441V13.4074H62.2551V15.9364C62.2551 16.0984 62.2791 16.2394 62.3271 16.3594C62.3811 16.4794 62.4681 16.5754 62.5881 16.6474C62.7081 16.7134 62.8671 16.7464 63.0651 16.7464C63.1071 16.7464 63.1581 16.7434 63.2181 16.7374C63.2841 16.7314 63.3441 16.7254 63.3981 16.7194V17.4574C63.3201 17.4754 63.2331 17.4874 63.1371 17.4934C63.0411 17.5054 62.9601 17.5114 62.8941 17.5114ZM64.4915 17.4574V10.6444H65.3285V13.5514L65.1755 13.4704C65.2955 13.1644 65.4875 12.9274 65.7515 12.7594C66.0215 12.5854 66.3365 12.4984 66.6965 12.4984C67.0445 12.4984 67.3535 12.5764 67.6235 12.7324C67.8995 12.8884 68.1155 13.1044 68.2715 13.3804C68.4335 13.6564 68.5145 13.9684 68.5145 14.3164V17.4574H67.6685V14.5864C67.6685 14.3164 67.6175 14.0884 67.5155 13.9024C67.4195 13.7164 67.2845 13.5724 67.1105 13.4704C66.9365 13.3624 66.7355 13.3084 66.5075 13.3084C66.2855 13.3084 66.0845 13.3624 65.9045 13.4704C65.7245 13.5724 65.5835 13.7194 65.4815 13.9114C65.3795 14.0974 65.3285 14.3224 65.3285 14.5864V17.4574H64.4915Z" fill="white"/>
<path d="M75.2312 14.1018V14.0841C75.2312 12.261 76.6105 10.7654 78.5875 10.7654C79.7926 10.7654 80.5367 11.1679 81.1245 11.7559L80.224 12.7917C79.7174 12.3419 79.2306 12.0676 78.5776 12.0676C77.4931 12.0676 76.7114 12.9654 76.7114 14.0663V14.0841C76.7114 15.1851 77.4753 16.1006 78.5776 16.1006C79.3137 16.1006 79.763 15.8164 80.2696 15.3488L81.17 16.2564C80.507 16.9628 79.7808 17.4028 78.5321 17.4028C76.6382 17.4028 75.2312 15.9447 75.2312 14.1018Z" fill="white"/>
<path d="M91.7075 10.8761H93.0116L96.0275 14.8262V10.8761H97.4246V17.2925H96.2214L93.1046 13.2142V17.2925H91.7075V10.8761Z" fill="white"/>
<path d="M99.5718 14.1018V14.0841C99.5718 12.259 100.951 10.7654 102.928 10.7654C104.133 10.7654 104.877 11.1679 105.465 11.7559L104.565 12.7917C104.058 12.3419 103.571 12.0676 102.918 12.0676C101.834 12.0676 101.052 12.9654 101.052 14.0663V14.0841C101.052 15.1851 101.816 16.1006 102.918 16.1006C103.654 16.1006 104.104 15.8164 104.61 15.3488L105.511 16.2564C104.848 16.9628 104.121 17.4028 102.873 17.4028C100.979 17.4028 99.5718 15.9447 99.5718 14.1038" fill="white"/>
<path d="M122.033 13.9935C122.731 13.9935 123.117 13.6364 123.117 13.0859V13.0682C123.117 12.4545 122.704 12.1507 122.005 12.1507H120.598V13.9935H122.033ZM119.181 10.8761H122.124C122.941 10.8761 123.567 11.0951 124 11.5272C124.368 11.8942 124.552 12.3796 124.552 12.9932V13.0109C124.552 14.0468 123.992 14.6979 123.173 14.9998L124.744 17.2905H123.09L121.71 15.2366H120.598V17.2905H119.183V10.8761H119.181Z" fill="white"/>
<path d="M128.132 12.1507V16.0179H129.226C130.376 16.0179 131.166 15.2385 131.166 14.102V14.0843C131.166 12.9478 130.374 12.1507 129.226 12.1507H128.132ZM126.717 10.8761H129.226C131.249 10.8761 132.646 12.2612 132.646 14.0665V14.0843C132.646 15.8896 131.249 17.2925 129.226 17.2925H126.717V10.8761Z" fill="white"/>
<path d="M136.273 10.8761H134.858V17.2925H136.273V10.8761Z" fill="white"/>
<path d="M138.67 14.542V10.8761H140.085V14.5065C140.085 15.5601 140.599 16.0929 141.474 16.0929C142.348 16.0929 142.863 15.5799 142.863 14.5539V10.8761H144.278V14.4967C144.278 16.4401 143.184 17.3931 141.456 17.3931C139.728 17.3931 138.67 16.4401 138.67 14.542Z" fill="white"/>
<path d="M146.609 10.8761H148.135L149.827 13.589L151.517 10.8761H153.044V17.2925H151.637V13.1037L149.827 15.8443H149.789L147.996 13.1313V17.2925H146.609V10.8761Z" fill="white"/>
<path d="M108.643 14.1155C108.643 15.9741 110.163 17.4796 112.041 17.4796C112.544 17.4796 113.021 17.3671 113.45 17.1738V18.7522C113.005 18.8844 112.532 18.9574 112.041 18.9574C109.342 18.9574 107.153 16.791 107.153 14.1155C107.153 11.44 109.342 9.27359 112.043 9.27359C112.534 9.27359 113.005 9.34659 113.452 9.47879V11.0572C113.023 10.8619 112.546 10.7514 112.043 10.7514C110.167 10.7514 108.645 12.2569 108.645 14.1155H108.643ZM112.041 16.1655C110.897 16.1655 109.969 15.2481 109.969 14.1135C109.969 12.979 110.897 12.0615 112.041 12.0615C113.185 12.0615 114.113 12.981 114.113 14.1135C114.113 15.2461 113.185 16.1655 112.041 16.1655ZM116.472 16.1655H114.73C115.172 15.5973 115.439 14.889 115.439 14.1155C115.439 13.3421 115.172 12.6318 114.728 12.0635H116.47C116.765 12.687 116.931 13.3815 116.931 14.1155C116.931 14.8495 116.765 15.544 116.47 16.1655" fill="white"/>
<path d="M86.147 16.1713C84.9953 16.1713 84.0612 15.242 84.0612 14.0917C84.0612 12.9414 84.9953 12.0141 86.147 12.0141C87.2987 12.0141 88.2328 12.9434 88.2328 14.0917C88.2328 15.24 87.2987 16.1713 86.147 16.1713ZM86.147 10.7927C84.3185 10.7927 82.8362 12.2706 82.8362 14.0937C82.8362 15.9168 84.3185 17.3946 86.147 17.3946C87.9755 17.3946 89.4577 15.9168 89.4577 14.0937C89.4577 12.2706 87.9755 10.7927 86.147 10.7927Z" fill="white"/>
<path d="M86.1467 12.0337C85.0068 12.0337 84.0807 12.9571 84.0807 14.0916C84.0807 15.2261 85.0068 16.1515 86.1467 16.1515C87.2866 16.1515 88.2127 15.2281 88.2127 14.0916C88.2127 12.9551 87.2866 12.0337 86.1467 12.0337ZM86.1467 16.191C84.9851 16.191 84.0411 15.2498 84.0411 14.0916C84.0411 12.9334 84.9851 11.9942 86.1467 11.9942C87.3083 11.9942 88.2523 12.9354 88.2523 14.0916C88.2523 15.2478 87.3083 16.191 86.1467 16.191ZM86.1467 10.8124C84.332 10.8124 82.8557 12.2843 82.8557 14.0936C82.8557 15.9029 84.332 17.3748 86.1467 17.3748C87.9614 17.3748 89.4377 15.9029 89.4377 14.0936C89.4377 12.2843 87.9614 10.8124 86.1467 10.8124ZM86.1467 17.4123C84.3103 17.4123 82.8162 15.9226 82.8162 14.0916C82.8162 12.2606 84.3103 10.7709 86.1467 10.7709C87.9832 10.7709 89.4772 12.2606 89.4772 14.0916C89.4772 15.9226 87.9832 17.4123 86.1467 17.4123Z" fill="white"/>
<path d="M160.192 9.27359L160.192 18.9574" stroke="white"/>
<path d="M167.366 17.3579V10.7629H168.411V17.3579H167.366ZM169.778 17.3579V10.7629H171.938C172.623 10.7629 173.216 10.9015 173.717 11.1789C174.225 11.4504 174.617 11.834 174.895 12.3297C175.172 12.8255 175.311 13.4009 175.311 14.0559C175.311 14.7051 175.172 15.2805 174.895 15.7822C174.617 16.2779 174.225 16.6644 173.717 16.9418C173.216 17.2192 172.623 17.3579 171.938 17.3579H169.778ZM170.823 16.4284H171.956C172.422 16.4284 172.826 16.331 173.169 16.1363C173.517 15.9415 173.785 15.6671 173.974 15.313C174.163 14.9589 174.257 14.5399 174.257 14.0559C174.257 13.572 174.16 13.156 173.965 12.8078C173.776 12.4537 173.511 12.1792 173.169 11.9845C172.826 11.7897 172.422 11.6924 171.956 11.6924H170.823V16.4284Z" fill="white"/>
</svg>
