<svg width="200" height="27" viewBox="0 0 200 27" fill="none" xmlns="http://www.w3.org/2000/svg">
<rect y="0.957428" width="200" height="26" rx="13" fill="#1B2735"/>
<path d="M49.7313 14.1019V14.0841C49.7313 12.261 51.1106 10.7654 53.0876 10.7654C54.2928 10.7654 55.0368 11.1679 55.6246 11.7559L54.7242 12.7917C54.2176 12.3419 53.7307 12.0676 53.0777 12.0676C51.9932 12.0676 51.2116 12.9654 51.2116 14.0663V14.0841C51.2116 15.1851 51.9754 16.1006 53.0777 16.1006C53.8139 16.1006 54.2631 15.8165 54.7697 15.3488L55.6701 16.2565C55.0072 16.9628 54.2809 17.4028 53.0322 17.4028C51.1383 17.4028 49.7313 15.9447 49.7313 14.1019Z" fill="white"/>
<path d="M66.2076 10.8761H67.5117L70.5276 14.8262V10.8761H71.9247V17.2925H70.7215L67.6047 13.2142V17.2925H66.2076V10.8761Z" fill="white"/>
<path d="M74.072 14.1019V14.0841C74.072 12.259 75.4513 10.7654 77.4282 10.7654C78.6334 10.7654 79.3775 11.1679 79.9652 11.7559L79.0648 12.7917C78.5582 12.3419 78.0714 12.0676 77.4183 12.0676C76.3339 12.0676 75.5522 12.9654 75.5522 14.0663V14.0841C75.5522 15.1851 76.3161 16.1006 77.4183 16.1006C78.1545 16.1006 78.6037 15.8165 79.1103 15.3488L80.0107 16.2565C79.3478 16.9628 78.6215 17.4028 77.3728 17.4028C75.479 17.4028 74.072 15.9447 74.072 14.1038" fill="white"/>
<path d="M96.533 13.9935C97.2316 13.9935 97.6175 13.6364 97.6175 13.0859V13.0682C97.6175 12.4545 97.2039 12.1507 96.5053 12.1507H95.0983V13.9935H96.533ZM93.6814 10.8761H96.624C97.4413 10.8761 98.0667 11.0951 98.5001 11.5272C98.8681 11.8942 99.0522 12.3796 99.0522 12.9932V13.0109C99.0522 14.0468 98.4921 14.6979 97.6729 14.9998L99.2441 17.2905H97.5898L96.2104 15.2366H95.0983V17.2905H93.6833V10.8761H93.6814Z" fill="white"/>
<path d="M102.632 12.1507V16.0179H103.727C104.876 16.0179 105.666 15.2385 105.666 14.1021V14.0843C105.666 12.9478 104.874 12.1507 103.727 12.1507H102.632ZM101.217 10.8761H103.727C105.749 10.8761 107.146 12.2612 107.146 14.0665V14.0843C107.146 15.8897 105.749 17.2925 103.727 17.2925H101.217V10.8761Z" fill="white"/>
<path d="M110.774 10.8761H109.359V17.2925H110.774V10.8761Z" fill="white"/>
<path d="M113.17 14.5421V10.8761H114.585V14.5065C114.585 15.5602 115.099 16.0929 115.974 16.0929C116.849 16.0929 117.363 15.5799 117.363 14.5539V10.8761H118.778V14.4967C118.778 16.4401 117.684 17.3931 115.956 17.3931C114.228 17.3931 113.17 16.4402 113.17 14.5421Z" fill="white"/>
<path d="M121.109 10.8761H122.635L124.327 13.5891L126.017 10.8761H127.544V17.2925H126.137V13.1037L124.327 15.8443H124.289L122.496 13.1313V17.2925H121.109V10.8761Z" fill="white"/>
<path d="M83.1434 14.1155C83.1434 15.9742 84.6632 17.4796 86.5412 17.4796C87.0438 17.4796 87.5208 17.3672 87.9502 17.1738V18.7523C87.5049 18.8845 87.032 18.9575 86.5412 18.9575C83.8419 18.9575 81.6532 16.791 81.6532 14.1155C81.6532 11.4401 83.8419 9.27362 86.5432 9.27362C87.0339 9.27362 87.5049 9.34662 87.9522 9.47882V11.0573C87.5227 10.8619 87.0458 10.7515 86.5432 10.7515C84.6671 10.7515 83.1453 12.2569 83.1453 14.1155H83.1434ZM86.5412 16.1656C85.3974 16.1656 84.4692 15.2481 84.4692 14.1136C84.4692 12.9791 85.3974 12.0616 86.5412 12.0616C87.685 12.0616 88.6131 12.981 88.6131 14.1136C88.6131 15.2461 87.685 16.1656 86.5412 16.1656ZM90.972 16.1656H89.2306C89.6719 15.5973 89.939 14.889 89.939 14.1155C89.939 13.3421 89.6719 12.6318 89.2286 12.0635H90.97C91.2649 12.687 91.4311 13.3816 91.4311 14.1155C91.4311 14.8495 91.2649 15.544 90.97 16.1656" fill="white"/>
<path d="M60.6471 16.1713C59.4954 16.1713 58.5613 15.242 58.5613 14.0917C58.5613 12.9414 59.4954 12.0141 60.6471 12.0141C61.7989 12.0141 62.7329 12.9434 62.7329 14.0917C62.7329 15.24 61.7989 16.1713 60.6471 16.1713ZM60.6471 10.7927C58.8186 10.7927 57.3364 12.2706 57.3364 14.0937C57.3364 15.9168 58.8186 17.3946 60.6471 17.3946C62.4756 17.3946 63.9579 15.9168 63.9579 14.0937C63.9579 12.2706 62.4756 10.7927 60.6471 10.7927Z" fill="white"/>
<path d="M60.6468 12.0337C59.507 12.0337 58.5808 12.9571 58.5808 14.0916C58.5808 15.2262 59.507 16.1515 60.6468 16.1515C61.7867 16.1515 62.7128 15.2281 62.7128 14.0916C62.7128 12.9552 61.7867 12.0337 60.6468 12.0337ZM60.6468 16.191C59.4852 16.191 58.5412 15.2498 58.5412 14.0916C58.5412 12.9335 59.4852 11.9943 60.6468 11.9943C61.8085 11.9943 62.7524 12.9354 62.7524 14.0916C62.7524 15.2479 61.8085 16.191 60.6468 16.191ZM60.6468 10.8124C58.8321 10.8124 57.3559 12.2843 57.3559 14.0936C57.3559 15.9029 58.8321 17.3748 60.6468 17.3748C62.4615 17.3748 63.9378 15.9029 63.9378 14.0936C63.9378 12.2843 62.4615 10.8124 60.6468 10.8124ZM60.6468 17.4123C58.8104 17.4123 57.3163 15.9227 57.3163 14.0916C57.3163 12.2606 58.8104 10.771 60.6468 10.771C62.4833 10.771 63.9774 12.2606 63.9774 14.0916C63.9774 15.9227 62.4833 17.4123 60.6468 17.4123Z" fill="white"/>
<path d="M134.692 9.27361L134.692 18.9574" stroke="white"/>
<path d="M141.866 17.3579V10.7628H142.911V17.3579H141.866ZM144.278 17.3579V10.7628H146.438C147.123 10.7628 147.716 10.9015 148.217 11.1789C148.725 11.4504 149.117 11.834 149.395 12.3297C149.672 12.8254 149.811 13.4009 149.811 14.0559C149.811 14.7051 149.672 15.2805 149.395 15.7821C149.117 16.2779 148.725 16.6644 148.217 16.9418C147.716 17.2192 147.123 17.3579 146.438 17.3579H144.278ZM145.323 16.4284H146.456C146.922 16.4284 147.326 16.331 147.669 16.1362C148.017 15.9415 148.285 15.6671 148.474 15.313C148.663 14.9589 148.757 14.5399 148.757 14.0559C148.757 13.572 148.66 13.1559 148.465 12.8077C148.276 12.4536 148.011 12.1792 147.669 11.9845C147.326 11.7897 146.922 11.6923 146.456 11.6923H145.323V16.4284Z" fill="white"/>
</svg>
